{
	"asset":{
		"generator":"Khronos glTF Blender I/O v5.1.19",
		"version":"2.0"
	},
	"extensionsUsed":[
		"KHR_materials_clearcoat"
	],
	"scene":0,
	"scenes":[
		{
			"extras":{
				"UVPackerProps":{
					"uvp_prerotate":0,
					"uvp_rotate":0,
					"uvp_stats":"16.23% \u00a6 0.24s"
				},
				"zen_display":{
					"stacked":0,
					"finished":0,
					"stretch":0
				},
				"uuid":"8a0e58fa-efca-4f95-a4ee-1c8bc2626330",
				"assets reported":{},
				"pl_studio_props":{}
			},
			"name":"Scene",
			"nodes":[
				0
			]
		}
	],
	"nodes":[
		{
			"extras":{
				"currentUVSet":"uv_fabrics"
			},
			"mesh":0,
			"name":"478-75-merged"
		}
	],
	"materials":[
		{
			"doubleSided":true,
			"extensions":{
				"KHR_materials_clearcoat":{
					"clearcoatRoughnessFactor":0
				}
			},
			"extras":{
				"default_material":"1.0"
			},
			"name":"seat_cushion",
			"pbrMetallicRoughness":{
				"metallicFactor":0,
				"roughnessFactor":0.800000011920929
			}
		},
		{
			"doubleSided":true,
			"extensions":{
				"KHR_materials_clearcoat":{
					"clearcoatRoughnessFactor":0
				}
			},
			"extras":{
				"default_material":"1.0"
			},
			"name":"arm_inside",
			"pbrMetallicRoughness":{
				"metallicFactor":0,
				"roughnessFactor":0.800000011920929
			}
		},
		{
			"doubleSided":true,
			"extensions":{
				"KHR_materials_clearcoat":{
					"clearcoatRoughnessFactor":0
				}
			},
			"extras":{
				"default_material":"1.0"
			},
			"name":"arm_outside",
			"pbrMetallicRoughness":{
				"metallicFactor":0,
				"roughnessFactor":0.800000011920929
			}
		},
		{
			"doubleSided":true,
			"extensions":{
				"KHR_materials_clearcoat":{
					"clearcoatRoughnessFactor":0
				}
			},
			"extras":{
				"default_material":"1.0"
			},
			"name":"arm_panel",
			"pbrMetallicRoughness":{
				"metallicFactor":0,
				"roughnessFactor":0.800000011920929
			}
		},
		{
			"doubleSided":true,
			"extensions":{
				"KHR_materials_clearcoat":{
					"clearcoatRoughnessFactor":0
				}
			},
			"extras":{
				"default_material":"1.0"
			},
			"name":"back_cushion",
			"pbrMetallicRoughness":{
				"metallicFactor":0,
				"roughnessFactor":0.800000011920929
			}
		},
		{
			"doubleSided":true,
			"extensions":{
				"KHR_materials_clearcoat":{
					"clearcoatRoughnessFactor":0
				}
			},
			"extras":{
				"default_material":"1.0"
			},
			"name":"back_inside",
			"pbrMetallicRoughness":{
				"metallicFactor":0,
				"roughnessFactor":0.800000011920929
			}
		},
		{
			"doubleSided":true,
			"extensions":{
				"KHR_materials_clearcoat":{
					"clearcoatRoughnessFactor":0
				}
			},
			"extras":{
				"default_material":"1.0"
			},
			"name":"back_outside",
			"pbrMetallicRoughness":{
				"metallicFactor":0,
				"roughnessFactor":0.800000011920929
			}
		},
		{
			"doubleSided":true,
			"extensions":{
				"KHR_materials_clearcoat":{
					"clearcoatRoughnessFactor":0
				}
			},
			"extras":{
				"default_material":"1.0"
			},
			"name":"bottom",
			"pbrMetallicRoughness":{
				"metallicFactor":0,
				"roughnessFactor":0.800000011920929
			}
		},
		{
			"doubleSided":true,
			"extensions":{
				"KHR_materials_clearcoat":{
					"clearcoatRoughnessFactor":0
				}
			},
			"extras":{
				"default_material":"1.0"
			},
			"name":"front",
			"pbrMetallicRoughness":{
				"metallicFactor":0,
				"roughnessFactor":0.800000011920929
			}
		},
		{
			"doubleSided":true,
			"name":"rubber",
			"pbrMetallicRoughness":{
				"baseColorFactor":[
					0.009999999776482582,
					0.009999999776482582,
					0.009999999776482582,
					1
				],
				"metallicFactor":0,
				"roughnessFactor":0.8999999761581421
			}
		},
		{
			"doubleSided":true,
			"extensions":{
				"KHR_materials_clearcoat":{
					"clearcoatRoughnessFactor":0
				}
			},
			"extras":{
				"default_material":"1.0"
			},
			"name":"wood_legs",
			"pbrMetallicRoughness":{
				"metallicFactor":0,
				"roughnessFactor":0.800000011920929
			}
		},
		{
			"doubleSided":true,
			"extensions":{
				"KHR_materials_clearcoat":{
					"clearcoatRoughnessFactor":0
				}
			},
			"extras":{
				"default_material":"1.0"
			},
			"name":"welt",
			"pbrMetallicRoughness":{
				"metallicFactor":0,
				"roughnessFactor":0.800000011920929
			}
		}
	],
	"meshes":[
		{
			"name":"Mesh.032",
			"primitives":[
				{
					"attributes":{
						"POSITION":0,
						"NORMAL":1,
						"TEXCOORD_0":2,
						"TEXCOORD_1":3
					},
					"indices":4,
					"material":0
				},
				{
					"attributes":{
						"POSITION":5,
						"NORMAL":6,
						"TEXCOORD_0":7,
						"TEXCOORD_1":8
					},
					"indices":9,
					"material":1
				},
				{
					"attributes":{
						"POSITION":10,
						"NORMAL":11,
						"TEXCOORD_0":12,
						"TEXCOORD_1":13
					},
					"indices":14,
					"material":2
				},
				{
					"attributes":{
						"POSITION":15,
						"NORMAL":16,
						"TEXCOORD_0":17,
						"TEXCOORD_1":18
					},
					"indices":19,
					"material":3
				},
				{
					"attributes":{
						"POSITION":20,
						"NORMAL":21,
						"TEXCOORD_0":22,
						"TEXCOORD_1":23
					},
					"indices":24,
					"material":4
				},
				{
					"attributes":{
						"POSITION":25,
						"NORMAL":26,
						"TEXCOORD_0":27,
						"TEXCOORD_1":28
					},
					"indices":29,
					"material":5
				},
				{
					"attributes":{
						"POSITION":30,
						"NORMAL":31,
						"TEXCOORD_0":32,
						"TEXCOORD_1":33
					},
					"indices":34,
					"material":6
				},
				{
					"attributes":{
						"POSITION":35,
						"NORMAL":36,
						"TEXCOORD_0":37,
						"TEXCOORD_1":38
					},
					"indices":39,
					"material":7
				},
				{
					"attributes":{
						"POSITION":40,
						"NORMAL":41,
						"TEXCOORD_0":42,
						"TEXCOORD_1":43
					},
					"indices":44,
					"material":8
				},
				{
					"attributes":{
						"POSITION":45,
						"NORMAL":46,
						"TEXCOORD_0":47,
						"TEXCOORD_1":48
					},
					"indices":49,
					"material":9
				},
				{
					"attributes":{
						"POSITION":50,
						"NORMAL":51,
						"TEXCOORD_0":52,
						"TEXCOORD_1":53
					},
					"indices":54,
					"material":10
				},
				{
					"attributes":{
						"POSITION":55,
						"NORMAL":56,
						"TEXCOORD_0":57,
						"TEXCOORD_1":58
					},
					"indices":59,
					"material":11
				}
			]
		}
	],
	"accessors":[
		{
			"bufferView":0,
			"componentType":5126,
			"count":13476,
			"max":[
				0.8442481756210327,
				0.8963271379470825,
				0.4883190095424652
			],
			"min":[
				-0.8442481756210327,
				0.14161357283592224,
				-0.5886784791946411
			],
			"type":"VEC3"
		},
		{
			"bufferView":1,
			"componentType":5126,
			"count":13476,
			"type":"VEC3"
		},
		{
			"bufferView":2,
			"componentType":5126,
			"count":13476,
			"type":"VEC2"
		},
		{
			"bufferView":3,
			"componentType":5126,
			"count":13476,
			"type":"VEC2"
		},
		{
			"bufferView":4,
			"componentType":5123,
			"count":76248,
			"type":"SCALAR"
		},
		{
			"bufferView":5,
			"componentType":5126,
			"count":4489,
			"max":[
				0.7168033123016357,
				0.6078962683677673,
				0.28151336312294006
			],
			"min":[
				-0.716803252696991,
				0.14090430736541748,
				-0.49464309215545654
			],
			"type":"VEC3"
		},
		{
			"bufferView":6,
			"componentType":5126,
			"count":4489,
			"type":"VEC3"
		},
		{
			"bufferView":7,
			"componentType":5126,
			"count":4489,
			"type":"VEC2"
		},
		{
			"bufferView":8,
			"componentType":5126,
			"count":4489,
			"type":"VEC2"
		},
		{
			"bufferView":9,
			"componentType":5123,
			"count":25728,
			"type":"SCALAR"
		},
		{
			"bufferView":10,
			"componentType":5126,
			"count":6118,
			"max":[
				0.8452479243278503,
				0.6076608896255493,
				0.2816920280456543
			],
			"min":[
				-0.8452479243278503,
				0.14194044470787048,
				-0.4930245876312256
			],
			"type":"VEC3"
		},
		{
			"bufferView":11,
			"componentType":5126,
			"count":6118,
			"type":"VEC3"
		},
		{
			"bufferView":12,
			"componentType":5126,
			"count":6118,
			"type":"VEC2"
		},
		{
			"bufferView":13,
			"componentType":5126,
			"count":6118,
			"type":"VEC2"
		},
		{
			"bufferView":14,
			"componentType":5123,
			"count":31488,
			"type":"SCALAR"
		},
		{
			"bufferView":15,
			"componentType":5126,
			"count":4218,
			"max":[
				0.8300959467887878,
				0.6190155744552612,
				0.29669180512428284
			],
			"min":[
				-0.8300959467887878,
				0.14121508598327637,
				-0.49525102972984314
			],
			"type":"VEC3"
		},
		{
			"bufferView":16,
			"componentType":5126,
			"count":4218,
			"type":"VEC3"
		},
		{
			"bufferView":17,
			"componentType":5126,
			"count":4218,
			"type":"VEC2"
		},
		{
			"bufferView":18,
			"componentType":5126,
			"count":4218,
			"type":"VEC2"
		},
		{
			"bufferView":19,
			"componentType":5123,
			"count":22668,
			"type":"SCALAR"
		},
		{
			"bufferView":20,
			"componentType":5126,
			"count":15432,
			"max":[
				0.7079505920410156,
				1.0172667503356934,
				-0.12364992499351501
			],
			"min":[
				-0.7079505920410156,
				0.453775554895401,
				-0.5072906017303467
			],
			"type":"VEC3"
		},
		{
			"bufferView":21,
			"componentType":5126,
			"count":15432,
			"type":"VEC3"
		},
		{
			"bufferView":22,
			"componentType":5126,
			"count":15432,
			"type":"VEC2"
		},
		{
			"bufferView":23,
			"componentType":5126,
			"count":15432,
			"type":"VEC2"
		},
		{
			"bufferView":24,
			"componentType":5123,
			"count":87936,
			"type":"SCALAR"
		},
		{
			"bufferView":25,
			"componentType":5126,
			"count":6843,
			"max":[
				0.8362540602684021,
				0.9163148999214172,
				-0.23894840478897095
			],
			"min":[
				-0.8362539410591125,
				0.26489126682281494,
				-0.5906416177749634
			],
			"type":"VEC3"
		},
		{
			"bufferView":26,
			"componentType":5126,
			"count":6843,
			"type":"VEC3"
		},
		{
			"bufferView":27,
			"componentType":5126,
			"count":6843,
			"type":"VEC2"
		},
		{
			"bufferView":28,
			"componentType":5126,
			"count":6843,
			"type":"VEC2"
		},
		{
			"bufferView":29,
			"componentType":5123,
			"count":37800,
			"type":"SCALAR"
		},
		{
			"bufferView":30,
			"componentType":5126,
			"count":3153,
			"max":[
				0.8300532102584839,
				0.8997724056243896,
				-0.3755987882614136
			],
			"min":[
				-0.8300532102584839,
				0.1409042477607727,
				-0.5998249053955078
			],
			"type":"VEC3"
		},
		{
			"bufferView":31,
			"componentType":5126,
			"count":3153,
			"type":"VEC3"
		},
		{
			"bufferView":32,
			"componentType":5126,
			"count":3153,
			"type":"VEC2"
		},
		{
			"bufferView":33,
			"componentType":5126,
			"count":3153,
			"type":"VEC2"
		},
		{
			"bufferView":34,
			"componentType":5123,
			"count":16776,
			"type":"SCALAR"
		},
		{
			"bufferView":35,
			"componentType":5126,
			"count":25,
			"max":[
				0.8267861604690552,
				0.15328633785247803,
				0.4816673696041107
			],
			"min":[
				-0.8267861604690552,
				0.14026609063148499,
				-0.38241323828697205
			],
			"type":"VEC3"
		},
		{
			"bufferView":36,
			"componentType":5126,
			"count":25,
			"type":"VEC3"
		},
		{
			"bufferView":37,
			"componentType":5126,
			"count":25,
			"type":"VEC2"
		},
		{
			"bufferView":38,
			"componentType":5126,
			"count":25,
			"type":"VEC2"
		},
		{
			"bufferView":39,
			"componentType":5123,
			"count":96,
			"type":"SCALAR"
		},
		{
			"bufferView":40,
			"componentType":5126,
			"count":7906,
			"max":[
				0.8375283479690552,
				0.3271411061286926,
				0.4952298104763031
			],
			"min":[
				-0.8368231058120728,
				0.15094737708568573,
				-0.38236621022224426
			],
			"type":"VEC3"
		},
		{
			"bufferView":41,
			"componentType":5126,
			"count":7906,
			"type":"VEC3"
		},
		{
			"bufferView":42,
			"componentType":5126,
			"count":7906,
			"type":"VEC2"
		},
		{
			"bufferView":43,
			"componentType":5126,
			"count":7906,
			"type":"VEC2"
		},
		{
			"bufferView":44,
			"componentType":5123,
			"count":43356,
			"type":"SCALAR"
		},
		{
			"bufferView":45,
			"componentType":5126,
			"count":9276,
			"max":[
				0.8074090480804443,
				0.006895139813423157,
				0.439027339220047
			],
			"min":[
				-0.8074090480804443,
				0.0004883051733486354,
				-0.37414786219596863
			],
			"type":"VEC3"
		},
		{
			"bufferView":46,
			"componentType":5126,
			"count":9276,
			"type":"VEC3"
		},
		{
			"bufferView":47,
			"componentType":5126,
			"count":9276,
			"type":"VEC2"
		},
		{
			"bufferView":48,
			"componentType":5126,
			"count":9276,
			"type":"VEC2"
		},
		{
			"bufferView":49,
			"componentType":5123,
			"count":50844,
			"type":"SCALAR"
		},
		{
			"bufferView":50,
			"componentType":5126,
			"count":3551,
			"max":[
				0.8173372745513916,
				0.15947477519512177,
				0.4638415277004242
			],
			"min":[
				-0.8173372745513916,
				0.006214678753167391,
				-0.3880690634250641
			],
			"type":"VEC3"
		},
		{
			"bufferView":51,
			"componentType":5126,
			"count":3551,
			"type":"VEC3"
		},
		{
			"bufferView":52,
			"componentType":5126,
			"count":3551,
			"type":"VEC2"
		},
		{
			"bufferView":53,
			"componentType":5126,
			"count":3551,
			"type":"VEC2"
		},
		{
			"bufferView":54,
			"componentType":5123,
			"count":17676,
			"type":"SCALAR"
		},
		{
			"bufferView":55,
			"componentType":5126,
			"count":1260,
			"max":[
				0.8357673287391663,
				0.16125012934207916,
				0.4888449013233185
			],
			"min":[
				-0.8357673287391663,
				0.13655920326709747,
				-0.39053967595100403
			],
			"type":"VEC3"
		},
		{
			"bufferView":56,
			"componentType":5126,
			"count":1260,
			"type":"VEC3"
		},
		{
			"bufferView":57,
			"componentType":5126,
			"count":1260,
			"type":"VEC2"
		},
		{
			"bufferView":58,
			"componentType":5126,
			"count":1260,
			"type":"VEC2"
		},
		{
			"bufferView":59,
			"componentType":5123,
			"count":6528,
			"type":"SCALAR"
		}
	],
	"bufferViews":[
		{
			"buffer":0,
			"byteLength":161712,
			"byteOffset":0,
			"target":34962
		},
		{
			"buffer":0,
			"byteLength":161712,
			"byteOffset":161712,
			"target":34962
		},
		{
			"buffer":0,
			"byteLength":107808,
			"byteOffset":323424,
			"target":34962
		},
		{
			"buffer":0,
			"byteLength":107808,
			"byteOffset":431232,
			"target":34962
		},
		{
			"buffer":0,
			"byteLength":152496,
			"byteOffset":539040,
			"target":34963
		},
		{
			"buffer":0,
			"byteLength":53868,
			"byteOffset":691536,
			"target":34962
		},
		{
			"buffer":0,
			"byteLength":53868,
			"byteOffset":745404,
			"target":34962
		},
		{
			"buffer":0,
			"byteLength":35912,
			"byteOffset":799272,
			"target":34962
		},
		{
			"buffer":0,
			"byteLength":35912,
			"byteOffset":835184,
			"target":34962
		},
		{
			"buffer":0,
			"byteLength":51456,
			"byteOffset":871096,
			"target":34963
		},
		{
			"buffer":0,
			"byteLength":73416,
			"byteOffset":922552,
			"target":34962
		},
		{
			"buffer":0,
			"byteLength":73416,
			"byteOffset":995968,
			"target":34962
		},
		{
			"buffer":0,
			"byteLength":48944,
			"byteOffset":1069384,
			"target":34962
		},
		{
			"buffer":0,
			"byteLength":48944,
			"byteOffset":1118328,
			"target":34962
		},
		{
			"buffer":0,
			"byteLength":62976,
			"byteOffset":1167272,
			"target":34963
		},
		{
			"buffer":0,
			"byteLength":50616,
			"byteOffset":1230248,
			"target":34962
		},
		{
			"buffer":0,
			"byteLength":50616,
			"byteOffset":1280864,
			"target":34962
		},
		{
			"buffer":0,
			"byteLength":33744,
			"byteOffset":1331480,
			"target":34962
		},
		{
			"buffer":0,
			"byteLength":33744,
			"byteOffset":1365224,
			"target":34962
		},
		{
			"buffer":0,
			"byteLength":45336,
			"byteOffset":1398968,
			"target":34963
		},
		{
			"buffer":0,
			"byteLength":185184,
			"byteOffset":1444304,
			"target":34962
		},
		{
			"buffer":0,
			"byteLength":185184,
			"byteOffset":1629488,
			"target":34962
		},
		{
			"buffer":0,
			"byteLength":123456,
			"byteOffset":1814672,
			"target":34962
		},
		{
			"buffer":0,
			"byteLength":123456,
			"byteOffset":1938128,
			"target":34962
		},
		{
			"buffer":0,
			"byteLength":175872,
			"byteOffset":2061584,
			"target":34963
		},
		{
			"buffer":0,
			"byteLength":82116,
			"byteOffset":2237456,
			"target":34962
		},
		{
			"buffer":0,
			"byteLength":82116,
			"byteOffset":2319572,
			"target":34962
		},
		{
			"buffer":0,
			"byteLength":54744,
			"byteOffset":2401688,
			"target":34962
		},
		{
			"buffer":0,
			"byteLength":54744,
			"byteOffset":2456432,
			"target":34962
		},
		{
			"buffer":0,
			"byteLength":75600,
			"byteOffset":2511176,
			"target":34963
		},
		{
			"buffer":0,
			"byteLength":37836,
			"byteOffset":2586776,
			"target":34962
		},
		{
			"buffer":0,
			"byteLength":37836,
			"byteOffset":2624612,
			"target":34962
		},
		{
			"buffer":0,
			"byteLength":25224,
			"byteOffset":2662448,
			"target":34962
		},
		{
			"buffer":0,
			"byteLength":25224,
			"byteOffset":2687672,
			"target":34962
		},
		{
			"buffer":0,
			"byteLength":33552,
			"byteOffset":2712896,
			"target":34963
		},
		{
			"buffer":0,
			"byteLength":300,
			"byteOffset":2746448,
			"target":34962
		},
		{
			"buffer":0,
			"byteLength":300,
			"byteOffset":2746748,
			"target":34962
		},
		{
			"buffer":0,
			"byteLength":200,
			"byteOffset":2747048,
			"target":34962
		},
		{
			"buffer":0,
			"byteLength":200,
			"byteOffset":2747248,
			"target":34962
		},
		{
			"buffer":0,
			"byteLength":192,
			"byteOffset":2747448,
			"target":34963
		},
		{
			"buffer":0,
			"byteLength":94872,
			"byteOffset":2747640,
			"target":34962
		},
		{
			"buffer":0,
			"byteLength":94872,
			"byteOffset":2842512,
			"target":34962
		},
		{
			"buffer":0,
			"byteLength":63248,
			"byteOffset":2937384,
			"target":34962
		},
		{
			"buffer":0,
			"byteLength":63248,
			"byteOffset":3000632,
			"target":34962
		},
		{
			"buffer":0,
			"byteLength":86712,
			"byteOffset":3063880,
			"target":34963
		},
		{
			"buffer":0,
			"byteLength":111312,
			"byteOffset":3150592,
			"target":34962
		},
		{
			"buffer":0,
			"byteLength":111312,
			"byteOffset":3261904,
			"target":34962
		},
		{
			"buffer":0,
			"byteLength":74208,
			"byteOffset":3373216,
			"target":34962
		},
		{
			"buffer":0,
			"byteLength":74208,
			"byteOffset":3447424,
			"target":34962
		},
		{
			"buffer":0,
			"byteLength":101688,
			"byteOffset":3521632,
			"target":34963
		},
		{
			"buffer":0,
			"byteLength":42612,
			"byteOffset":3623320,
			"target":34962
		},
		{
			"buffer":0,
			"byteLength":42612,
			"byteOffset":3665932,
			"target":34962
		},
		{
			"buffer":0,
			"byteLength":28408,
			"byteOffset":3708544,
			"target":34962
		},
		{
			"buffer":0,
			"byteLength":28408,
			"byteOffset":3736952,
			"target":34962
		},
		{
			"buffer":0,
			"byteLength":35352,
			"byteOffset":3765360,
			"target":34963
		},
		{
			"buffer":0,
			"byteLength":15120,
			"byteOffset":3800712,
			"target":34962
		},
		{
			"buffer":0,
			"byteLength":15120,
			"byteOffset":3815832,
			"target":34962
		},
		{
			"buffer":0,
			"byteLength":10080,
			"byteOffset":3830952,
			"target":34962
		},
		{
			"buffer":0,
			"byteLength":10080,
			"byteOffset":3841032,
			"target":34962
		},
		{
			"buffer":0,
			"byteLength":13056,
			"byteOffset":3851112,
			"target":34963
		}
	],
	"buffers":[
		{
			"byteLength":3864168,
			"uri":"478-75-HP-no-compression.bin"
		}
	]
}
