{
	"asset":{
		"generator":"Khronos glTF Blender I/O v5.1.19",
		"version":"2.0"
	},
	"extensionsUsed":[
		"KHR_materials_clearcoat"
	],
	"scene":0,
	"scenes":[
		{
			"extras":{
				"UVPackerProps":{
					"uvp_prerotate":0,
					"uvp_rotate":0,
					"uvp_stats":"16.23% \u00a6 0.24s"
				},
				"zen_display":{
					"stacked":0,
					"finished":0,
					"stretch":0
				},
				"uuid":"8a0e58fa-efca-4f95-a4ee-1c8bc2626330",
				"assets reported":{},
				"pl_studio_props":{}
			},
			"name":"Scene",
			"nodes":[
				0
			]
		}
	],
	"nodes":[
		{
			"extras":{
				"currentUVSet":"uv_fabrics"
			},
			"mesh":0,
			"name":"478-75-merged"
		}
	],
	"materials":[
		{
			"doubleSided":true,
			"extensions":{
				"KHR_materials_clearcoat":{
					"clearcoatRoughnessFactor":0
				}
			},
			"extras":{
				"default_material":"1.0"
			},
			"name":"seat_cushion",
			"pbrMetallicRoughness":{
				"metallicFactor":0,
				"roughnessFactor":0.800000011920929
			}
		},
		{
			"doubleSided":true,
			"extensions":{
				"KHR_materials_clearcoat":{
					"clearcoatRoughnessFactor":0
				}
			},
			"extras":{
				"default_material":"1.0"
			},
			"name":"arm_inside",
			"pbrMetallicRoughness":{
				"metallicFactor":0,
				"roughnessFactor":0.800000011920929
			}
		},
		{
			"doubleSided":true,
			"extensions":{
				"KHR_materials_clearcoat":{
					"clearcoatRoughnessFactor":0
				}
			},
			"extras":{
				"default_material":"1.0"
			},
			"name":"arm_outside",
			"pbrMetallicRoughness":{
				"metallicFactor":0,
				"roughnessFactor":0.800000011920929
			}
		},
		{
			"doubleSided":true,
			"extensions":{
				"KHR_materials_clearcoat":{
					"clearcoatRoughnessFactor":0
				}
			},
			"extras":{
				"default_material":"1.0"
			},
			"name":"arm_panel",
			"pbrMetallicRoughness":{
				"metallicFactor":0,
				"roughnessFactor":0.800000011920929
			}
		},
		{
			"doubleSided":true,
			"extensions":{
				"KHR_materials_clearcoat":{
					"clearcoatRoughnessFactor":0
				}
			},
			"extras":{
				"default_material":"1.0"
			},
			"name":"back_cushion",
			"pbrMetallicRoughness":{
				"metallicFactor":0,
				"roughnessFactor":0.800000011920929
			}
		},
		{
			"doubleSided":true,
			"extensions":{
				"KHR_materials_clearcoat":{
					"clearcoatRoughnessFactor":0
				}
			},
			"extras":{
				"default_material":"1.0"
			},
			"name":"back_inside",
			"pbrMetallicRoughness":{
				"metallicFactor":0,
				"roughnessFactor":0.800000011920929
			}
		},
		{
			"doubleSided":true,
			"extensions":{
				"KHR_materials_clearcoat":{
					"clearcoatRoughnessFactor":0
				}
			},
			"extras":{
				"default_material":"1.0"
			},
			"name":"back_outside",
			"pbrMetallicRoughness":{
				"metallicFactor":0,
				"roughnessFactor":0.800000011920929
			}
		},
		{
			"doubleSided":true,
			"extensions":{
				"KHR_materials_clearcoat":{
					"clearcoatRoughnessFactor":0
				}
			},
			"extras":{
				"default_material":"1.0"
			},
			"name":"bottom",
			"pbrMetallicRoughness":{
				"metallicFactor":0,
				"roughnessFactor":0.800000011920929
			}
		},
		{
			"doubleSided":true,
			"extensions":{
				"KHR_materials_clearcoat":{
					"clearcoatRoughnessFactor":0
				}
			},
			"extras":{
				"default_material":"1.0"
			},
			"name":"front",
			"pbrMetallicRoughness":{
				"metallicFactor":0,
				"roughnessFactor":0.800000011920929
			}
		},
		{
			"doubleSided":true,
			"name":"rubber",
			"pbrMetallicRoughness":{
				"baseColorFactor":[
					0.009999999776482582,
					0.009999999776482582,
					0.009999999776482582,
					1
				],
				"metallicFactor":0,
				"roughnessFactor":0.8999999761581421
			}
		},
		{
			"doubleSided":true,
			"extensions":{
				"KHR_materials_clearcoat":{
					"clearcoatRoughnessFactor":0
				}
			},
			"extras":{
				"default_material":"1.0"
			},
			"name":"wood_legs",
			"pbrMetallicRoughness":{
				"metallicFactor":0,
				"roughnessFactor":0.800000011920929
			}
		},
		{
			"doubleSided":true,
			"extensions":{
				"KHR_materials_clearcoat":{
					"clearcoatRoughnessFactor":0
				}
			},
			"extras":{
				"default_material":"1.0"
			},
			"name":"welt",
			"pbrMetallicRoughness":{
				"metallicFactor":0,
				"roughnessFactor":0.800000011920929
			}
		}
	],
	"meshes":[
		{
			"name":"Mesh.027",
			"primitives":[
				{
					"attributes":{
						"POSITION":0,
						"NORMAL":1,
						"TEXCOORD_0":2,
						"TEXCOORD_1":3
					},
					"indices":4,
					"material":0
				},
				{
					"attributes":{
						"POSITION":5,
						"NORMAL":6,
						"TEXCOORD_0":7,
						"TEXCOORD_1":8
					},
					"indices":9,
					"material":1
				},
				{
					"attributes":{
						"POSITION":10,
						"NORMAL":11,
						"TEXCOORD_0":12,
						"TEXCOORD_1":13
					},
					"indices":14,
					"material":2
				},
				{
					"attributes":{
						"POSITION":15,
						"NORMAL":16,
						"TEXCOORD_0":17,
						"TEXCOORD_1":18
					},
					"indices":19,
					"material":3
				},
				{
					"attributes":{
						"POSITION":20,
						"NORMAL":21,
						"TEXCOORD_0":22,
						"TEXCOORD_1":23
					},
					"indices":24,
					"material":4
				},
				{
					"attributes":{
						"POSITION":25,
						"NORMAL":26,
						"TEXCOORD_0":27,
						"TEXCOORD_1":28
					},
					"indices":29,
					"material":5
				},
				{
					"attributes":{
						"POSITION":30,
						"NORMAL":31,
						"TEXCOORD_0":32,
						"TEXCOORD_1":33
					},
					"indices":34,
					"material":6
				},
				{
					"attributes":{
						"POSITION":35,
						"NORMAL":36,
						"TEXCOORD_0":37,
						"TEXCOORD_1":38
					},
					"indices":39,
					"material":7
				},
				{
					"attributes":{
						"POSITION":40,
						"NORMAL":41,
						"TEXCOORD_0":42,
						"TEXCOORD_1":43
					},
					"indices":44,
					"material":8
				},
				{
					"attributes":{
						"POSITION":45,
						"NORMAL":46,
						"TEXCOORD_0":47,
						"TEXCOORD_1":48
					},
					"indices":49,
					"material":9
				},
				{
					"attributes":{
						"POSITION":50,
						"NORMAL":51,
						"TEXCOORD_0":52,
						"TEXCOORD_1":53
					},
					"indices":54,
					"material":10
				},
				{
					"attributes":{
						"POSITION":55,
						"NORMAL":56,
						"TEXCOORD_0":57,
						"TEXCOORD_1":58
					},
					"indices":59,
					"material":11
				}
			]
		}
	],
	"accessors":[
		{
			"bufferView":0,
			"componentType":5126,
			"count":40317,
			"max":[
				0.8442481756210327,
				0.5317220687866211,
				0.4883190095424652
			],
			"min":[
				-0.8442481756210327,
				0.29539647698402405,
				-0.2702315151691437
			],
			"type":"VEC3"
		},
		{
			"bufferView":1,
			"componentType":5126,
			"count":40317,
			"type":"VEC3"
		},
		{
			"bufferView":2,
			"componentType":5126,
			"count":40317,
			"type":"VEC2"
		},
		{
			"bufferView":3,
			"componentType":5126,
			"count":40317,
			"type":"VEC2"
		},
		{
			"bufferView":4,
			"componentType":5123,
			"count":228672,
			"type":"SCALAR"
		},
		{
			"bufferView":5,
			"componentType":5126,
			"count":8996,
			"max":[
				0.7168056964874268,
				0.6079239845275879,
				0.2815353572368622
			],
			"min":[
				-0.7168056964874268,
				0.14090430736541748,
				-0.4946431815624237
			],
			"type":"VEC3"
		},
		{
			"bufferView":6,
			"componentType":5126,
			"count":8996,
			"type":"VEC3"
		},
		{
			"bufferView":7,
			"componentType":5126,
			"count":8996,
			"type":"VEC2"
		},
		{
			"bufferView":8,
			"componentType":5126,
			"count":8996,
			"type":"VEC2"
		},
		{
			"bufferView":9,
			"componentType":5123,
			"count":51456,
			"type":"SCALAR"
		},
		{
			"bufferView":10,
			"componentType":5126,
			"count":8942,
			"max":[
				0.8452480435371399,
				0.6076507568359375,
				0.281684011220932
			],
			"min":[
				-0.8452479243278503,
				0.14197242259979248,
				-0.4930363595485687
			],
			"type":"VEC3"
		},
		{
			"bufferView":11,
			"componentType":5126,
			"count":8942,
			"type":"VEC3"
		},
		{
			"bufferView":12,
			"componentType":5126,
			"count":8942,
			"type":"VEC2"
		},
		{
			"bufferView":13,
			"componentType":5126,
			"count":8942,
			"type":"VEC2"
		},
		{
			"bufferView":14,
			"componentType":5123,
			"count":51456,
			"type":"SCALAR"
		},
		{
			"bufferView":15,
			"componentType":5126,
			"count":8436,
			"max":[
				0.8300959467887878,
				0.6190155744552612,
				0.29669180512428284
			],
			"min":[
				-0.8300959467887878,
				0.14121508598327637,
				-0.49525102972984314
			],
			"type":"VEC3"
		},
		{
			"bufferView":16,
			"componentType":5126,
			"count":8436,
			"type":"VEC3"
		},
		{
			"bufferView":17,
			"componentType":5126,
			"count":8436,
			"type":"VEC2"
		},
		{
			"bufferView":18,
			"componentType":5126,
			"count":8436,
			"type":"VEC2"
		},
		{
			"bufferView":19,
			"componentType":5123,
			"count":45336,
			"type":"SCALAR"
		},
		{
			"bufferView":20,
			"componentType":5126,
			"count":30440,
			"max":[
				0.7079505920410156,
				1.0172667503356934,
				-0.12364992499351501
			],
			"min":[
				-0.7079505920410156,
				0.453775554895401,
				-0.5072906017303467
			],
			"type":"VEC3"
		},
		{
			"bufferView":21,
			"componentType":5126,
			"count":30440,
			"type":"VEC3"
		},
		{
			"bufferView":22,
			"componentType":5126,
			"count":30440,
			"type":"VEC2"
		},
		{
			"bufferView":23,
			"componentType":5126,
			"count":30440,
			"type":"VEC2"
		},
		{
			"bufferView":24,
			"componentType":5123,
			"count":173376,
			"type":"SCALAR"
		},
		{
			"bufferView":25,
			"componentType":5126,
			"count":13692,
			"max":[
				0.8362540602684021,
				0.9163148999214172,
				-0.23894840478897095
			],
			"min":[
				-0.8362539410591125,
				0.26489126682281494,
				-0.5906416177749634
			],
			"type":"VEC3"
		},
		{
			"bufferView":26,
			"componentType":5126,
			"count":13692,
			"type":"VEC3"
		},
		{
			"bufferView":27,
			"componentType":5126,
			"count":13692,
			"type":"VEC2"
		},
		{
			"bufferView":28,
			"componentType":5126,
			"count":13692,
			"type":"VEC2"
		},
		{
			"bufferView":29,
			"componentType":5123,
			"count":75600,
			"type":"SCALAR"
		},
		{
			"bufferView":30,
			"componentType":5126,
			"count":4426,
			"max":[
				0.8300532102584839,
				0.8997724056243896,
				-0.37659263610839844
			],
			"min":[
				-0.8300532102584839,
				0.1409042626619339,
				-0.5998249053955078
			],
			"type":"VEC3"
		},
		{
			"bufferView":31,
			"componentType":5126,
			"count":4426,
			"type":"VEC3"
		},
		{
			"bufferView":32,
			"componentType":5126,
			"count":4426,
			"type":"VEC2"
		},
		{
			"bufferView":33,
			"componentType":5126,
			"count":4426,
			"type":"VEC2"
		},
		{
			"bufferView":34,
			"componentType":5123,
			"count":24720,
			"type":"SCALAR"
		},
		{
			"bufferView":35,
			"componentType":5126,
			"count":50,
			"max":[
				0.8267861604690552,
				0.15328633785247803,
				0.4816673696041107
			],
			"min":[
				-0.8267861604690552,
				0.14026609063148499,
				-0.38241323828697205
			],
			"type":"VEC3"
		},
		{
			"bufferView":36,
			"componentType":5126,
			"count":50,
			"type":"VEC3"
		},
		{
			"bufferView":37,
			"componentType":5126,
			"count":50,
			"type":"VEC2"
		},
		{
			"bufferView":38,
			"componentType":5126,
			"count":50,
			"type":"VEC2"
		},
		{
			"bufferView":39,
			"componentType":5123,
			"count":192,
			"type":"SCALAR"
		},
		{
			"bufferView":40,
			"componentType":5126,
			"count":15874,
			"max":[
				0.8375283479690552,
				0.3271411061286926,
				0.4952298104763031
			],
			"min":[
				-0.8368231058120728,
				0.15094737708568573,
				-0.38236621022224426
			],
			"type":"VEC3"
		},
		{
			"bufferView":41,
			"componentType":5126,
			"count":15874,
			"type":"VEC3"
		},
		{
			"bufferView":42,
			"componentType":5126,
			"count":15874,
			"type":"VEC2"
		},
		{
			"bufferView":43,
			"componentType":5126,
			"count":15874,
			"type":"VEC2"
		},
		{
			"bufferView":44,
			"componentType":5123,
			"count":86712,
			"type":"SCALAR"
		},
		{
			"bufferView":45,
			"componentType":5126,
			"count":18552,
			"max":[
				0.8074090480804443,
				0.006895139813423157,
				0.439027339220047
			],
			"min":[
				-0.8074090480804443,
				0.0004883051733486354,
				-0.37414786219596863
			],
			"type":"VEC3"
		},
		{
			"bufferView":46,
			"componentType":5126,
			"count":18552,
			"type":"VEC3"
		},
		{
			"bufferView":47,
			"componentType":5126,
			"count":18552,
			"type":"VEC2"
		},
		{
			"bufferView":48,
			"componentType":5126,
			"count":18552,
			"type":"VEC2"
		},
		{
			"bufferView":49,
			"componentType":5123,
			"count":104448,
			"type":"SCALAR"
		},
		{
			"bufferView":50,
			"componentType":5126,
			"count":7020,
			"max":[
				0.8173372745513916,
				0.15947477519512177,
				0.4638415277004242
			],
			"min":[
				-0.8173372745513916,
				0.006214678753167391,
				-0.3880690634250641
			],
			"type":"VEC3"
		},
		{
			"bufferView":51,
			"componentType":5126,
			"count":7020,
			"type":"VEC3"
		},
		{
			"bufferView":52,
			"componentType":5126,
			"count":7020,
			"type":"VEC2"
		},
		{
			"bufferView":53,
			"componentType":5126,
			"count":7020,
			"type":"VEC2"
		},
		{
			"bufferView":54,
			"componentType":5123,
			"count":35328,
			"type":"SCALAR"
		},
		{
			"bufferView":55,
			"componentType":5126,
			"count":2520,
			"max":[
				0.8357673287391663,
				0.16125012934207916,
				0.4888449013233185
			],
			"min":[
				-0.8357673287391663,
				0.13655920326709747,
				-0.39053967595100403
			],
			"type":"VEC3"
		},
		{
			"bufferView":56,
			"componentType":5126,
			"count":2520,
			"type":"VEC3"
		},
		{
			"bufferView":57,
			"componentType":5126,
			"count":2520,
			"type":"VEC2"
		},
		{
			"bufferView":58,
			"componentType":5126,
			"count":2520,
			"type":"VEC2"
		},
		{
			"bufferView":59,
			"componentType":5123,
			"count":13056,
			"type":"SCALAR"
		}
	],
	"bufferViews":[
		{
			"buffer":0,
			"byteLength":483804,
			"byteOffset":0,
			"target":34962
		},
		{
			"buffer":0,
			"byteLength":483804,
			"byteOffset":483804,
			"target":34962
		},
		{
			"buffer":0,
			"byteLength":322536,
			"byteOffset":967608,
			"target":34962
		},
		{
			"buffer":0,
			"byteLength":322536,
			"byteOffset":1290144,
			"target":34962
		},
		{
			"buffer":0,
			"byteLength":457344,
			"byteOffset":1612680,
			"target":34963
		},
		{
			"buffer":0,
			"byteLength":107952,
			"byteOffset":2070024,
			"target":34962
		},
		{
			"buffer":0,
			"byteLength":107952,
			"byteOffset":2177976,
			"target":34962
		},
		{
			"buffer":0,
			"byteLength":71968,
			"byteOffset":2285928,
			"target":34962
		},
		{
			"buffer":0,
			"byteLength":71968,
			"byteOffset":2357896,
			"target":34962
		},
		{
			"buffer":0,
			"byteLength":102912,
			"byteOffset":2429864,
			"target":34963
		},
		{
			"buffer":0,
			"byteLength":107304,
			"byteOffset":2532776,
			"target":34962
		},
		{
			"buffer":0,
			"byteLength":107304,
			"byteOffset":2640080,
			"target":34962
		},
		{
			"buffer":0,
			"byteLength":71536,
			"byteOffset":2747384,
			"target":34962
		},
		{
			"buffer":0,
			"byteLength":71536,
			"byteOffset":2818920,
			"target":34962
		},
		{
			"buffer":0,
			"byteLength":102912,
			"byteOffset":2890456,
			"target":34963
		},
		{
			"buffer":0,
			"byteLength":101232,
			"byteOffset":2993368,
			"target":34962
		},
		{
			"buffer":0,
			"byteLength":101232,
			"byteOffset":3094600,
			"target":34962
		},
		{
			"buffer":0,
			"byteLength":67488,
			"byteOffset":3195832,
			"target":34962
		},
		{
			"buffer":0,
			"byteLength":67488,
			"byteOffset":3263320,
			"target":34962
		},
		{
			"buffer":0,
			"byteLength":90672,
			"byteOffset":3330808,
			"target":34963
		},
		{
			"buffer":0,
			"byteLength":365280,
			"byteOffset":3421480,
			"target":34962
		},
		{
			"buffer":0,
			"byteLength":365280,
			"byteOffset":3786760,
			"target":34962
		},
		{
			"buffer":0,
			"byteLength":243520,
			"byteOffset":4152040,
			"target":34962
		},
		{
			"buffer":0,
			"byteLength":243520,
			"byteOffset":4395560,
			"target":34962
		},
		{
			"buffer":0,
			"byteLength":346752,
			"byteOffset":4639080,
			"target":34963
		},
		{
			"buffer":0,
			"byteLength":164304,
			"byteOffset":4985832,
			"target":34962
		},
		{
			"buffer":0,
			"byteLength":164304,
			"byteOffset":5150136,
			"target":34962
		},
		{
			"buffer":0,
			"byteLength":109536,
			"byteOffset":5314440,
			"target":34962
		},
		{
			"buffer":0,
			"byteLength":109536,
			"byteOffset":5423976,
			"target":34962
		},
		{
			"buffer":0,
			"byteLength":151200,
			"byteOffset":5533512,
			"target":34963
		},
		{
			"buffer":0,
			"byteLength":53112,
			"byteOffset":5684712,
			"target":34962
		},
		{
			"buffer":0,
			"byteLength":53112,
			"byteOffset":5737824,
			"target":34962
		},
		{
			"buffer":0,
			"byteLength":35408,
			"byteOffset":5790936,
			"target":34962
		},
		{
			"buffer":0,
			"byteLength":35408,
			"byteOffset":5826344,
			"target":34962
		},
		{
			"buffer":0,
			"byteLength":49440,
			"byteOffset":5861752,
			"target":34963
		},
		{
			"buffer":0,
			"byteLength":600,
			"byteOffset":5911192,
			"target":34962
		},
		{
			"buffer":0,
			"byteLength":600,
			"byteOffset":5911792,
			"target":34962
		},
		{
			"buffer":0,
			"byteLength":400,
			"byteOffset":5912392,
			"target":34962
		},
		{
			"buffer":0,
			"byteLength":400,
			"byteOffset":5912792,
			"target":34962
		},
		{
			"buffer":0,
			"byteLength":384,
			"byteOffset":5913192,
			"target":34963
		},
		{
			"buffer":0,
			"byteLength":190488,
			"byteOffset":5913576,
			"target":34962
		},
		{
			"buffer":0,
			"byteLength":190488,
			"byteOffset":6104064,
			"target":34962
		},
		{
			"buffer":0,
			"byteLength":126992,
			"byteOffset":6294552,
			"target":34962
		},
		{
			"buffer":0,
			"byteLength":126992,
			"byteOffset":6421544,
			"target":34962
		},
		{
			"buffer":0,
			"byteLength":173424,
			"byteOffset":6548536,
			"target":34963
		},
		{
			"buffer":0,
			"byteLength":222624,
			"byteOffset":6721960,
			"target":34962
		},
		{
			"buffer":0,
			"byteLength":222624,
			"byteOffset":6944584,
			"target":34962
		},
		{
			"buffer":0,
			"byteLength":148416,
			"byteOffset":7167208,
			"target":34962
		},
		{
			"buffer":0,
			"byteLength":148416,
			"byteOffset":7315624,
			"target":34962
		},
		{
			"buffer":0,
			"byteLength":208896,
			"byteOffset":7464040,
			"target":34963
		},
		{
			"buffer":0,
			"byteLength":84240,
			"byteOffset":7672936,
			"target":34962
		},
		{
			"buffer":0,
			"byteLength":84240,
			"byteOffset":7757176,
			"target":34962
		},
		{
			"buffer":0,
			"byteLength":56160,
			"byteOffset":7841416,
			"target":34962
		},
		{
			"buffer":0,
			"byteLength":56160,
			"byteOffset":7897576,
			"target":34962
		},
		{
			"buffer":0,
			"byteLength":70656,
			"byteOffset":7953736,
			"target":34963
		},
		{
			"buffer":0,
			"byteLength":30240,
			"byteOffset":8024392,
			"target":34962
		},
		{
			"buffer":0,
			"byteLength":30240,
			"byteOffset":8054632,
			"target":34962
		},
		{
			"buffer":0,
			"byteLength":20160,
			"byteOffset":8084872,
			"target":34962
		},
		{
			"buffer":0,
			"byteLength":20160,
			"byteOffset":8105032,
			"target":34962
		},
		{
			"buffer":0,
			"byteLength":26112,
			"byteOffset":8125192,
			"target":34963
		}
	],
	"buffers":[
		{
			"byteLength":8151304,
			"uri":"478-75-merged-no-compression.bin"
		}
	]
}
